HIERARCHY
ROOT root
{
	OFFSET 0.000000 0.000000 0.000000
	CHANNELS 6 Xposition Yposition Zposition Zrotation Yrotation Xrotation
	JOINT lhip
	{
		OFFSET 0.058581 -0.082280 -0.017664
		CHANNELS 3 Zrotation Yrotation Xrotation
		JOINT lknee
		{
			OFFSET 0.043451 -0.386469 0.008037
			CHANNELS 3 Zrotation Yrotation Xrotation
			JOINT lankle
			{
				OFFSET -0.014790 -0.426874 -0.037428
				CHANNELS 3 Zrotation Yrotation Xrotation
				JOINT ltoe
				{
					OFFSET 0.041054 -0.060286 0.122042
					CHANNELS 3 Zrotation Yrotation Xrotation
					End Site
					{
						OFFSET 0.000000 0.000000 0.000000
					}
				}
			}
		}
	}
	JOINT rhip
	{
		OFFSET -0.060310 -0.090513 -0.013543
		CHANNELS 3 Zrotation Yrotation Xrotation
		JOINT rknee
		{
			OFFSET -0.043257 -0.383688 -0.004843
			CHANNELS 3 Zrotation Yrotation Xrotation
			JOINT rankle
			{
				OFFSET 0.019056 -0.420046 -0.034562
				CHANNELS 3 Zrotation Yrotation Xrotation
				JOINT rtoe
				{
					OFFSET -0.034840 -0.062106 0.130323
					CHANNELS 3 Zrotation Yrotation Xrotation
					End Site
					{
						OFFSET 0.000000 0.000000 0.000000
					}
				}
			}
		}
	}
	JOINT lowerback
	{
		OFFSET 0.004439 0.124404 -0.038385
		CHANNELS 3 Zrotation Yrotation Xrotation
		JOINT upperback
		{
			OFFSET 0.004488 0.137956 0.026820
			CHANNELS 3 Zrotation Yrotation Xrotation
			JOINT chest
			{
				OFFSET -0.002265 0.056032 0.002855
				CHANNELS 3 Zrotation Yrotation Xrotation
				JOINT lowerneck
				{
					OFFSET -0.013390 0.211636 -0.033468
					CHANNELS 3 Zrotation Yrotation Xrotation
					JOINT upperneck
					{
						OFFSET 0.010113 0.088937 0.050410
						CHANNELS 3 Zrotation Yrotation Xrotation
						End Site
						{
							OFFSET 0.000000 0.000000 0.000000
						}
					}
				}
				JOINT lclavicle
				{
					OFFSET 0.071702 0.114000 -0.018898
					CHANNELS 3 Zrotation Yrotation Xrotation
					JOINT lshoulder
					{
						OFFSET 0.122921 0.045205 -0.019046
						CHANNELS 3 Zrotation Yrotation Xrotation
						JOINT lelbow
						{
							OFFSET 0.255332 -0.015649 -0.022946
							CHANNELS 3 Zrotation Yrotation Xrotation
							JOINT lwrist
							{
								OFFSET 0.265709 0.012698 -0.007375
								CHANNELS 3 Zrotation Yrotation Xrotation
								End Site
								{
									OFFSET 0.000000 0.000000 0.000000
								}
							}
						}
					}
				}
				JOINT rclavicle
				{
					OFFSET -0.082954 0.112472 -0.023707
					CHANNELS 3 Zrotation Yrotation Xrotation
					JOINT rshoulder
					{
						OFFSET -0.113228 0.046853 -0.008472
						CHANNELS 3 Zrotation Yrotation Xrotation
						JOINT relbow
						{
							OFFSET -0.260127 -0.014369 -0.031269
							CHANNELS 3 Zrotation Yrotation Xrotation
							JOINT rwrist
							{
								OFFSET -0.269108 0.006794 -0.006027
								CHANNELS 3 Zrotation Yrotation Xrotation
								End Site
								{
									OFFSET 0.000000 0.000000 0.000000
								}
							}
						}
					}
				}
			}
		}
	}
}
MOTION
Frames: 8
Frame Time: 0.033333
0.515755 0.259776 0.986893 89.254042 3.469290 95.041344 5.929787 3.624184 -2.233296 3.383610 -2.416882 -7.242112 -1.237596 9.859534 -2.951011 0.000000 -0.000000 0.000000 -2.143357 -2.090976 -6.158808 -1.181330 1.585996 0.733776 6.466696 -5.173230 -3.056739 0.000000 -0.000000 0.000000 0.355723 1.875230 -1.489038 3.107440 -2.480965 2.308356 -0.114484 1.037629 -5.593738 -0.152256 -10.827924 6.286463 7.011889 -13.434948 -9.232677 -22.520209 3.964814 -3.002133 -60.408047 -4.120330 16.172154 12.551857 -10.641553 -10.199134 -5.482293 -8.747689 0.676912 22.851577 4.179221 -0.856622 54.616230 5.659235 12.958577 -10.330778 8.137990 -9.578263 2.345451 4.440255 0.472593 
0.515919 0.259536 0.986699 89.239734 3.606296 94.906216 6.124299 3.673719 -2.072156 3.365990 -2.465871 -7.254360 -1.364409 9.913347 -2.943556 0.000000 -0.000000 0.000000 -1.903057 -2.052629 -5.909036 -1.339376 1.908224 0.369806 5.509409 -4.933959 -3.762562 0.000000 -0.000000 0.000000 0.556555 1.860793 -1.074697 2.966996 -2.449097 1.616236 -0.028424 1.033698 -5.257966 -0.073154 -10.945645 6.213897 6.909315 -13.459562 -9.084285 -22.432340 3.882167 -2.902792 -60.541626 -4.030564 16.047378 12.679522 -10.672704 -9.742943 -5.250895 -8.709933 0.174011 22.783279 4.258692 -0.737756 54.708507 5.636122 12.871585 -10.316093 8.091567 -9.232289 2.391236 4.452247 0.145494 
0.516032 0.259394 0.986641 89.287565 3.562397 94.973387 6.112418 3.697074 -2.118295 3.307357 -2.469291 -7.319374 -1.418418 9.872671 -2.900785 0.000000 -0.000000 0.000000 -1.964669 -2.068286 -5.977732 -1.285404 1.738869 0.482367 6.020797 -5.070829 -3.390226 0.000000 -0.000000 0.000000 0.400570 1.779675 -1.345607 3.003855 -2.460619 1.776190 0.034997 1.079337 -5.253252 -0.025319 -10.963421 6.191065 6.935770 -13.574495 -9.066277 -22.279170 3.830914 -2.720506 -60.682113 -4.119842 15.971070 12.697848 -10.820829 -9.793962 -5.225474 -8.516155 -0.058560 22.743428 4.311166 -0.571657 54.699947 5.784474 12.732344 -10.246595 7.978059 -9.379110 2.385499 4.361462 0.025356 
0.516544 0.259033 0.986356 89.631406 3.564449 95.428751 6.192260 3.667817 -2.679302 3.174990 -2.626803 -7.271569 -1.573153 9.784909 -2.926236 0.000000 -0.000000 0.000000 -1.791308 -1.975986 -6.202259 -1.433435 1.678209 0.059177 5.403449 -5.089018 -3.775212 0.000000 -0.000000 0.000000 0.260487 1.496244 -2.185896 3.034205 -2.560737 2.197731 0.064204 1.110742 -5.428099 0.188058 -10.920188 6.270006 6.901418 -13.677683 -9.075201 -22.141483 3.745668 -2.565205 -60.826143 -4.156847 15.945367 12.792822 -11.021969 -10.235354 -5.076125 -7.978271 -0.430581 22.849548 4.404221 -0.299589 54.519235 6.070131 12.575340 -9.980785 7.666102 -9.535214 2.705856 4.281608 -0.367424 
0.516553 0.259015 0.986247 89.647028 3.540742 95.465290 6.164032 3.662702 -2.715082 3.177860 -2.642472 -7.281320 -1.566315 9.792645 -2.922176 0.000000 -0.000000 0.000000 -1.796165 -1.956394 -6.235973 -1.458256 1.665796 0.051711 5.381198 -5.117846 -3.783984 0.000000 -0.000000 0.000000 0.307359 1.561254 -2.082624 2.987687 -2.542599 2.024505 0.003659 1.045771 -5.465427 0.175243 -10.969069 6.275555 6.925154 -13.654632 -8.997675 -22.080178 3.753954 -2.554442 -60.896313 -4.183403 15.999403 12.869449 -10.874783 -10.253297 -5.105616 -8.028485 -0.432891 22.859814 4.343739 -0.322326 54.604075 6.010403 12.643686 -10.023224 7.668562 -9.536853 2.708038 4.294952 -0.427679 
0.516527 0.259043 0.986072 89.646155 3.513023 95.484198 6.120920 3.655131 -2.733294 3.190426 -2.678813 -7.293789 -1.532804 9.793561 -2.919698 0.000000 -0.000000 0.000000 -1.809041 -1.936695 -6.260846 -1.474320 1.659872 0.049915 5.389369 -5.126476 -3.761353 0.000000 -0.000000 0.000000 0.305929 1.565747 -2.057284 2.974384 -2.565160 1.991073 -0.019941 1.057833 -5.483723 0.179235 -11.012940 6.211798 6.971836 -13.672188 -8.924149 -22.071787 3.743453 -2.565887 -60.928733 -4.224964 16.013786 12.906795 -10.804548 -10.282940 -5.089371 -8.025618 -0.400286 22.861160 4.364056 -0.305279 54.658027 6.046345 12.650405 -10.065728 7.645736 -9.568928 2.693868 4.324834 -0.412952 
0.516648 0.258991 0.985990 89.621868 3.494627 95.434662 6.100989 3.685274 -2.633159 3.202221 -2.657498 -7.356069 -1.545444 9.788039 -2.912334 0.000000 -0.000000 0.000000 -1.821029 -1.940401 -6.189796 -1.487854 1.668448 0.016217 5.388856 -5.086132 -3.754061 0.000000 -0.000000 0.000000 0.300860 1.572443 -2.039357 2.967667 -2.570671 2.024507 -0.016768 1.078648 -5.481104 0.144038 -11.009030 6.244660 6.992406 -13.735967 -8.988180 -22.070219 3.707176 -2.541188 -60.919195 -4.249683 15.986063 12.913338 -10.830467 -10.265791 -5.093263 -7.996673 -0.339889 22.834704 4.384846 -0.286477 54.677149 6.055211 12.636587 -10.075253 7.698030 -9.546751 2.690047 4.300667 -0.395718 
0.516583 0.258969 0.985845 89.621298 3.490176 95.413252 6.100073 3.697135 -2.614988 3.216016 -2.677661 -7.358180 -1.536564 9.761904 -2.943580 0.000000 -0.000000 0.000000 -1.836628 -1.947111 -6.159973 -1.458764 1.651671 -0.008828 5.392965 -5.059125 -3.743131 0.000000 -0.000000 0.000000 0.283304 1.554584 -1.990926 2.967619 -2.583572 2.000666 0.003009 1.104039 -5.498670 0.162698 -11.018709 6.232365 7.046945 -13.763078 -8.945944 -22.046472 3.663606 -2.461630 -60.924438 -4.227744 15.968949 12.919917 -10.979539 -10.321667 -4.922151 -7.920586 -0.486050 22.827136 4.433465 -0.227862 54.686001 6.089965 12.621208 -10.079189 7.718389 -9.592693 2.603067 4.250008 -0.527452 
